<svg xmlns="http://www.w3.org/2000/svg" xmlns:xlink="http://www.w3.org/1999/xlink" width="40" height="40" viewBox="0 0 40 40">
<g id="surface1">
<path style=" stroke:none;fill-rule:nonzero;fill:rgb(32.54902%,78.431373%,87.45098%);fill-opacity:1;" d="M 2.5 2.5 C 39.8125 2.5 31.140625 27.289062 31.179688 31.117188 L 37.5 37.5 L 35.46875 37.5 L 29.96875 31.9375 C 26.921875 32.265625 20.25 34.632812 13.21875 29.046875 C 6.171875 23.460938 6.5625 16.773438 2.5 2.5 Z M 8.726562 6.09375 C 4.84375 4.257812 8.320312 6.8125 8.320312 6.8125 C 11.851562 9.25 13.476562 12.570312 15.367188 16.179688 C 17.828125 20.882812 21.539062 27.09375 26.632812 29.28125 C 31.710938 31.46875 29.304688 30.257812 27.101562 28.617188 C 24.898438 26.960938 21.773438 21.820312 19.992188 18.445312 C 17.515625 13.757812 15.226562 9.179688 8.726562 6.09375 Z M 8.726562 6.09375 "/>
</g>
</svg>
